<?xml version="1.0" standalone="no"?>
<!DOCTYPE svg PUBLIC "-//W3C//DTD SVG 20010904//EN"
 "http://www.w3.org/TR/2001/REC-SVG-20010904/DTD/svg10.dtd">
<svg version="1.0" xmlns="http://www.w3.org/2000/svg"
 width="512.000000pt" height="512.000000pt" viewBox="0 0 512.000000 512.000000"
 preserveAspectRatio="xMidYMid meet">
<metadata>
Created by potrace 1.11, written by Peter Selinger 2001-2013
</metadata>
<g transform="translate(0.000000,512.000000) scale(0.100000,-0.100000)"
fill="#000000" stroke="none">
<path d="M0 2560 l0 -2560 2560 0 2560 0 0 2560 0 2560 -2560 0 -2560 0 0
-2560z m2093 1748 c41 -10 127 -86 127 -112 0 -27 17 -26 86 5 256 116 595
147 866 79 46 -12 129 -43 184 -70 229 -111 391 -293 475 -536 43 -123 58
-217 59 -370 0 -268 -65 -482 -217 -713 -97 -146 -217 -259 -375 -356 -43 -25
-78 -51 -78 -56 0 -16 191 -393 255 -504 155 -268 276 -442 396 -569 l89 -93
-54 -51 c-56 -53 -129 -94 -236 -133 -56 -20 -83 -23 -195 -23 -152 0 -211 17
-298 88 -138 112 -217 249 -473 816 -88 194 -148 314 -155 312 -7 -2 -87 2
-178 8 -160 10 -289 33 -373 67 -22 9 -43 12 -47 7 -5 -5 -20 -101 -35 -214
-70 -548 -61 -720 49 -868 l44 -60 -64 -42 c-198 -129 -415 -162 -586 -89 -69
30 -132 102 -161 187 -21 62 -23 83 -23 267 1 280 37 590 156 1355 22 140 46
298 54 350 21 133 47 298 90 561 l36 227 -75 151 c-42 83 -76 154 -76 159 0
12 142 95 240 141 187 87 356 114 493 79z"/>
<path d="M2445 3804 c-58 -16 -145 -44 -186 -62 l-45 -20 -18 -103 c-10 -57
-29 -167 -43 -244 -49 -271 -140 -820 -137 -824 2 -2 46 -12 96 -22 115 -23
228 -24 367 -4 310 45 531 191 637 420 130 282 49 661 -171 789 -90 53 -157
68 -325 71 -85 2 -164 1 -175 -1z"/>
</g>
</svg>
